<mxfile host="app.diagrams.net" modified="2023-04-13T12:13:09.522Z" agent="Mozilla/5.0 (Windows NT 10.0; Win64; x64) AppleWebKit/537.36 (KHTML, like Gecko) Chrome/111.0.0.0 Safari/537.36" version="21.1.7" etag="JBUGY16olAkQgza-9FVE" type="github">
  <diagram name="Halaman-1" id="Hm-LGceXOqF2iOhA0MoR">
    <mxGraphModel>
      <root>
        <mxCell id="0" />
        <mxCell id="1" parent="0" />
      </root>
    </mxGraphModel>
  </diagram>
</mxfile>
